<?xml version="1.0" encoding="utf-8"?>
<!-- Generator: Adobe Illustrator 24.0.0, SVG Export Plug-In . SVG Version: 6.00 Build 0)  -->
<svg version="1.1" id="Capa_1" xmlns="http://www.w3.org/2000/svg" xmlns:xlink="http://www.w3.org/1999/xlink" x="0px" y="0px"
	 viewBox="0 0 1156.9 1423.9" style="enable-background:new 0 0 1156.9 1423.9;" xml:space="preserve">
<style type="text/css">
	.st0{fill:#FFFFFF;}
</style>
<title>Tooth</title>
<path class="st0" d="M843.9,57.5C802.1,57.6,761,67.8,724,87.1c-110.2,41.3-210.4,42.4-299.7,0c-37-19.3-78.2-29.5-119.9-29.6
	C159.7,56.8,41,174.8,41,319.5c-0.1,59.2,20,116.7,56.9,163.1c42,52.6,74.2,112.4,94.9,176.5c29.8,93.1,19.7,190,32.3,285.5
	c10.7,81.3,33.3,161.7,70.8,234.8c28.9,56.3,69.8,111.7,120.9,151.2c19.8,15.3,48.8,1.9,50.4-23.1l9-146c-32,3.3-53.1,1.1-55.4-7.2
	c-2.7-9.7,20.5-25.5,58.5-42l5.4-87.7c-31.6,4.1-52.6,3-54.7-4.3c-2.4-8.3,20.5-22.7,57.3-37.8l5.4-86.5c-27.3,3.9-45.7,2.7-48-4.5
	c-2.7-8.5,17.7-23.2,50.6-38.4l5.4-87.3c-27.5,5.5-45.9,6.4-47.5,1.3c-1.8-5.7,18-17.6,49.4-30.8l5.5-89.3l48.5-52.5l55.1,52.5
	l5.8,51.5c40-9.9,68.7-12.9,70.7-6.5c2.2,6.7-25.7,22-67.2,38c-33.8,14.9-78.5,28-92.2,30.7c23.6,4.1,52.8,4.9,95.2-3l6.1,52.4
	c35.6-6.7,60.7-6.5,63.3,1.9c2.9,9.1-20.9,25.4-58.4,41.9c-45.5,23-83.2,34-116.5,38.2c42.1,1.5,82.1-2.8,119.1-15.4l6.9,60.9
	c41.8-7.2,71-7.3,73.5,1.4c2.6,9.1-25.3,25.6-68.5,42.3c-46.3,26.3-91.6,38.4-136.4,43.2c33.1,6.4,81.8,0.8,139.9-12l5.4,47.6
	c48.3-8.1,82.2-7.6,85.2,3.1c3.2,11.3-29.1,31.1-79.2,50.5c-44.6,22.2-94.2,36.1-146.7,45.1c46.1,4.6,96.4,0.4,150.5-11.7
	l17.9,158.1c2.8,24.7,31.8,36.5,51.1,20.8c54-43.9,96.2-105.7,124.8-167c41.8-89.5,60.3-187.5,66.1-285.6
	c5.5-94.2,8.8-180.7,47.8-268.6c19.4-43.7,44.4-84.7,74.2-122.1c36.9-46.3,57-103.8,56.9-163.1C1107.2,174.8,988.6,56.8,843.9,57.5z
	"/>
</svg>
