<svg id="Capa_1" data-name="Capa 1" xmlns="http://www.w3.org/2000/svg" viewBox="0 0 1156.88 1423.88"><title>Tooth</title><path d="M843.9,57.45A261,261,0,0,0,724,87.08c-110.22,41.35-210.38,42.36-299.73,0A260.83,260.83,0,0,0,304.35,57.45C159.66,56.78,41,174.84,41,319.53A261,261,0,0,0,97.92,482.59a557.87,557.87,0,0,1,94.89,176.46c29.84,93.11,19.73,190,32.34,285.5,10.71,81.26,33.27,161.72,70.83,234.78C324.9,1235.6,365.77,1291,416.9,1330.57c19.84,15.35,48.81,1.94,50.36-23.1l9-146c-32,3.26-53.07,1.11-55.42-7.21-2.73-9.67,20.45-25.48,58.47-42l5.42-87.72c-31.57,4.13-52.6,3-54.66-4.27-2.35-8.31,20.52-22.69,57.26-37.78L492.71,896c-27.28,3.89-45.69,2.69-48-4.48-2.7-8.45,17.67-23.15,50.64-38.39l5.4-87.29c-27.49,5.5-45.91,6.38-47.53,1.29-1.83-5.72,18-17.58,49.35-30.8L508.11,647l48.53-52.46L611.72,647l5.84,51.47c40-9.87,68.69-12.94,70.74-6.52,2.15,6.74-25.68,22-67.17,38-33.83,14.9-78.55,28-92.21,30.66,23.63,4.13,52.81,4.9,95.18-3L630.21,810c35.61-6.68,60.66-6.51,63.35,1.93,2.91,9.1-20.89,25.43-58.38,41.89-45.53,23-83.24,34-116.51,38.16,42.12,1.54,82.12-2.76,119.09-15.38l6.9,60.87c41.85-7.21,71-7.26,73.49,1.4,2.58,9.13-25.27,25.59-68.53,42.26-46.28,26.35-91.59,38.38-136.41,43.16,33.11,6.4,81.85.8,139.94-12l5.4,47.57c48.27-8.08,82.22-7.57,85.24,3.12,3.2,11.32-29.12,31.06-79.16,50.52-44.6,22.16-94.17,36.13-146.74,45.14,46.1,4.62,96.4.43,150.53-11.73L686.35,1305c2.8,24.72,31.81,36.5,51.12,20.81,54-43.89,96.2-105.68,124.83-167,41.81-89.5,60.31-187.5,66.06-285.62,5.51-94.15,8.79-180.65,47.8-268.59a563.46,563.46,0,0,1,74.17-122.08,261.06,261.06,0,0,0,56.9-163.06C1107.23,174.84,988.59,56.78,843.9,57.45Z"/></svg>